<svg width="131" height="40" viewBox="0 0 131 40" fill="none" xmlns="http://www.w3.org/2000/svg">
<rect x="0.5" y="0.5" width="130" height="39" rx="7.5" stroke="white"/>
<g clip-path="url(#clip0_324_1610)">
<path d="M24.3 10.2657C24.1961 10.2668 24.0929 10.2474 23.9965 10.2087C23.9 10.17 23.8121 10.1126 23.7378 10.0399C23.6635 9.9672 23.6043 9.88058 23.5635 9.78498C23.5227 9.68938 23.5011 9.58668 23.5 9.48274C23.5 6.45341 26.0088 4.00007 29.0979 4.00007C29.2019 3.99866 29.3051 4.01783 29.4017 4.05646C29.4983 4.0951 29.5863 4.15245 29.6607 4.22521C29.735 4.29796 29.7942 4.3847 29.8349 4.48043C29.8756 4.57616 29.897 4.67899 29.8979 4.78301C29.8979 7.81234 27.3912 10.2657 24.3 10.2657Z" fill="white"/>
<path d="M24.3002 10.2657C24.1963 10.2668 24.0931 10.2474 23.9967 10.2087C23.9002 10.17 23.8123 10.1126 23.738 10.0399C23.6637 9.9672 23.6045 9.88058 23.5637 9.78498C23.5229 9.68938 23.5013 9.58668 23.5002 9.48274C23.5002 6.45341 26.009 4.00007 29.0981 4.00007C29.2021 3.99866 29.3053 4.01783 29.4019 4.05646C29.4985 4.0951 29.5865 4.15245 29.6608 4.22521C29.7352 4.29796 29.7944 4.3847 29.8351 4.48043C29.8758 4.57616 29.8972 4.67899 29.8981 4.78301C29.8981 7.81234 27.3914 10.2657 24.3002 10.2657ZM35.9802 26.7585C36.2895 26.9846 36.3898 27.3985 36.2149 27.7355C33.3989 33.2523 31.1525 36.0001 29.1002 36.0001C28.1445 36.0001 27.2058 35.6971 26.2906 35.1083C25.6337 34.6866 24.8731 34.4547 24.0926 34.4381C23.3122 34.4215 22.5424 34.621 21.8682 35.0145C20.7589 35.6651 19.7029 36.0001 18.7002 36.0001C15.6815 36.0001 10.7002 26.8971 10.7002 21.903C10.7002 16.5697 13.5567 12.5035 17.9002 12.5035C19.9439 12.5035 21.7082 12.7979 23.1909 13.3974C23.8181 13.6491 24.5285 13.6321 25.1407 13.3441C26.3439 12.7766 27.9311 12.5035 29.8981 12.5035C32.3023 12.5035 34.3994 13.6769 36.1402 15.9489C36.2032 16.0308 36.2491 16.1245 36.2751 16.2245C36.3012 16.3245 36.307 16.4287 36.2921 16.531C36.2771 16.6332 36.2418 16.7314 36.1883 16.8198C36.1347 16.9082 36.064 16.9849 35.9802 17.0454C34.0367 18.4747 33.1002 20.0769 33.1002 21.903C33.1002 23.727 34.0367 25.3313 35.9802 26.7585Z" fill="white"/>
<path d="M35.9802 26.7588C36.2895 26.985 36.3898 27.3988 36.2149 27.7359C33.3989 33.2527 31.1525 36.0004 29.1002 36.0004C28.1445 36.0004 27.2058 35.6975 26.2906 35.1087C25.6337 34.687 24.8731 34.455 24.0926 34.4385C23.3122 34.4219 22.5424 34.6214 21.8682 35.0148C20.7589 35.6655 19.7029 36.0004 18.7002 36.0004C15.6815 36.0004 10.7002 26.8975 10.7002 21.9034C10.7002 16.57 13.5567 12.5039 17.9002 12.5039C19.9439 12.5039 21.7082 12.7983 23.1909 13.3978C23.8181 13.6495 24.5285 13.6324 25.1407 13.3444C26.3439 12.777 27.9311 12.5039 29.8981 12.5039C32.3023 12.5039 34.3994 13.6772 36.1402 15.9492C36.2032 16.0312 36.2491 16.1249 36.2751 16.2249C36.3012 16.3249 36.307 16.4291 36.2921 16.5313C36.2771 16.6336 36.2418 16.7318 36.1883 16.8202C36.1347 16.9085 36.064 16.9852 35.9802 17.0458C34.0367 18.4751 33.1002 20.0772 33.1002 21.9034C33.1002 23.7274 34.0367 25.3316 35.9802 26.7588Z" fill="white"/>
</g>
<path d="M48.556 16.5V7.56H51.496C52.384 7.56 53.156 7.744 53.812 8.112C54.468 8.472 54.976 8.988 55.336 9.66C55.696 10.324 55.876 11.112 55.876 12.024C55.876 12.928 55.696 13.716 55.336 14.388C54.976 15.06 54.468 15.58 53.812 15.948C53.156 16.316 52.384 16.5 51.496 16.5H48.556ZM49.516 15.6H51.496C52.184 15.6 52.78 15.456 53.284 15.168C53.788 14.872 54.176 14.456 54.448 13.92C54.728 13.384 54.868 12.752 54.868 12.024C54.868 11.296 54.728 10.668 54.448 10.14C54.168 9.604 53.776 9.192 53.272 8.904C52.768 8.608 52.176 8.46 51.496 8.46H49.516V15.6ZM60.3423 16.644C59.7343 16.644 59.1823 16.5 58.6863 16.212C58.1903 15.916 57.7943 15.516 57.4983 15.012C57.2103 14.5 57.0663 13.92 57.0663 13.272C57.0663 12.632 57.2103 12.06 57.4983 11.556C57.7863 11.052 58.1743 10.656 58.6623 10.368C59.1583 10.072 59.7183 9.924 60.3423 9.924C60.9663 9.924 61.5223 10.068 62.0103 10.356C62.5063 10.644 62.8943 11.04 63.1743 11.544C63.4623 12.048 63.6063 12.624 63.6063 13.272C63.6063 13.928 63.4583 14.512 63.1623 15.024C62.8663 15.528 62.4703 15.924 61.9743 16.212C61.4863 16.5 60.9423 16.644 60.3423 16.644ZM60.3423 15.744C60.7743 15.744 61.1623 15.636 61.5063 15.42C61.8583 15.204 62.1343 14.908 62.3343 14.532C62.5423 14.156 62.6463 13.736 62.6463 13.272C62.6463 12.808 62.5423 12.392 62.3343 12.024C62.1343 11.656 61.8583 11.364 61.5063 11.148C61.1623 10.932 60.7743 10.824 60.3423 10.824C59.9103 10.824 59.5183 10.932 59.1663 11.148C58.8223 11.364 58.5463 11.656 58.3383 12.024C58.1303 12.392 58.0263 12.808 58.0263 13.272C58.0263 13.736 58.1303 14.156 58.3383 14.532C58.5463 14.908 58.8223 15.204 59.1663 15.42C59.5183 15.636 59.9103 15.744 60.3423 15.744ZM66.4923 16.5L64.2843 10.068H65.3043L67.1283 15.696H66.7683L68.4843 10.068H69.3843L71.1003 15.696H70.7403L72.5763 10.068H73.5843L71.3763 16.5H70.4763L68.8083 10.992H69.0603L67.3923 16.5H66.4923ZM74.6388 16.5V10.068H75.5388V11.316L75.3348 11.268C75.4948 10.852 75.7548 10.524 76.1148 10.284C76.4828 10.044 76.9068 9.924 77.3868 9.924C77.8428 9.924 78.2508 10.028 78.6108 10.236C78.9788 10.444 79.2668 10.732 79.4748 11.1C79.6908 11.46 79.7988 11.868 79.7988 12.324V16.5H78.8988V12.672C78.8988 12.28 78.8268 11.948 78.6828 11.676C78.5468 11.404 78.3508 11.196 78.0948 11.052C77.8468 10.9 77.5588 10.824 77.2308 10.824C76.9028 10.824 76.6108 10.9 76.3548 11.052C76.0988 11.196 75.8988 11.408 75.7548 11.688C75.6108 11.96 75.5388 12.288 75.5388 12.672V16.5H74.6388ZM81.5178 16.5V7.416H82.4178V16.5H81.5178ZM87.2719 16.644C86.6639 16.644 86.1119 16.5 85.6159 16.212C85.1199 15.916 84.7239 15.516 84.4279 15.012C84.1399 14.5 83.9959 13.92 83.9959 13.272C83.9959 12.632 84.1399 12.06 84.4279 11.556C84.7159 11.052 85.1039 10.656 85.5919 10.368C86.0879 10.072 86.6479 9.924 87.2719 9.924C87.8959 9.924 88.4519 10.068 88.9399 10.356C89.4359 10.644 89.8239 11.04 90.1039 11.544C90.3919 12.048 90.5359 12.624 90.5359 13.272C90.5359 13.928 90.3879 14.512 90.0919 15.024C89.7959 15.528 89.3999 15.924 88.9039 16.212C88.4159 16.5 87.8719 16.644 87.2719 16.644ZM87.2719 15.744C87.7039 15.744 88.0919 15.636 88.4359 15.42C88.7879 15.204 89.0639 14.908 89.2639 14.532C89.4719 14.156 89.5759 13.736 89.5759 13.272C89.5759 12.808 89.4719 12.392 89.2639 12.024C89.0639 11.656 88.7879 11.364 88.4359 11.148C88.0919 10.932 87.7039 10.824 87.2719 10.824C86.8399 10.824 86.4479 10.932 86.0959 11.148C85.7519 11.364 85.4759 11.656 85.2679 12.024C85.0599 12.392 84.9559 12.808 84.9559 13.272C84.9559 13.736 85.0599 14.156 85.2679 14.532C85.4759 14.908 85.7519 15.204 86.0959 15.42C86.4479 15.636 86.8399 15.744 87.2719 15.744ZM93.9832 16.644C93.5752 16.644 93.2112 16.568 92.8912 16.416C92.5712 16.256 92.3192 16.04 92.1352 15.768C91.9512 15.496 91.8592 15.184 91.8592 14.832C91.8592 14.496 91.9312 14.192 92.0752 13.92C92.2192 13.64 92.4432 13.404 92.7472 13.212C93.0512 13.02 93.4392 12.884 93.9112 12.804L96.4312 12.384V13.2L94.1272 13.584C93.6632 13.664 93.3272 13.812 93.1192 14.028C92.9192 14.244 92.8192 14.5 92.8192 14.796C92.8192 15.084 92.9312 15.328 93.1552 15.528C93.3872 15.728 93.6832 15.828 94.0432 15.828C94.4832 15.828 94.8672 15.736 95.1952 15.552C95.5232 15.36 95.7792 15.104 95.9632 14.784C96.1472 14.464 96.2392 14.108 96.2392 13.716V12.084C96.2392 11.7 96.0992 11.388 95.8192 11.148C95.5392 10.908 95.1752 10.788 94.7272 10.788C94.3352 10.788 93.9912 10.888 93.6952 11.088C93.3992 11.28 93.1792 11.532 93.0352 11.844L92.2192 11.4C92.3392 11.128 92.5272 10.88 92.7832 10.656C93.0472 10.432 93.3472 10.256 93.6832 10.128C94.0192 9.992 94.3672 9.924 94.7272 9.924C95.1992 9.924 95.6152 10.016 95.9752 10.2C96.3432 10.384 96.6272 10.64 96.8272 10.968C97.0352 11.288 97.1392 11.66 97.1392 12.084V16.5H96.2392V15.216L96.3712 15.348C96.2592 15.588 96.0832 15.808 95.8432 16.008C95.6112 16.2 95.3352 16.356 95.0152 16.476C94.7032 16.588 94.3592 16.644 93.9832 16.644ZM101.894 16.644C101.294 16.644 100.754 16.5 100.274 16.212C99.7944 15.916 99.4144 15.516 99.1344 15.012C98.8624 14.5 98.7264 13.924 98.7264 13.284C98.7264 12.636 98.8624 12.06 99.1344 11.556C99.4144 11.052 99.7904 10.656 100.262 10.368C100.742 10.072 101.286 9.924 101.894 9.924C102.446 9.924 102.938 10.044 103.37 10.284C103.802 10.524 104.142 10.848 104.39 11.256L104.246 11.508V7.416H105.146V16.5H104.246V15.06L104.39 15.192C104.166 15.656 103.83 16.016 103.382 16.272C102.942 16.52 102.446 16.644 101.894 16.644ZM101.942 15.744C102.374 15.744 102.762 15.636 103.106 15.42C103.458 15.204 103.734 14.912 103.934 14.544C104.142 14.168 104.246 13.748 104.246 13.284C104.246 12.82 104.142 12.404 103.934 12.036C103.734 11.66 103.458 11.364 103.106 11.148C102.762 10.932 102.374 10.824 101.942 10.824C101.518 10.824 101.134 10.932 100.79 11.148C100.446 11.364 100.174 11.656 99.9744 12.024C99.7824 12.392 99.6864 12.812 99.6864 13.284C99.6864 13.748 99.7824 14.168 99.9744 14.544C100.174 14.912 100.442 15.204 100.778 15.42C101.122 15.636 101.51 15.744 101.942 15.744ZM112.045 16.644C111.437 16.644 110.885 16.5 110.389 16.212C109.893 15.916 109.497 15.516 109.201 15.012C108.913 14.5 108.769 13.92 108.769 13.272C108.769 12.632 108.913 12.06 109.201 11.556C109.489 11.052 109.877 10.656 110.365 10.368C110.861 10.072 111.421 9.924 112.045 9.924C112.669 9.924 113.225 10.068 113.713 10.356C114.209 10.644 114.597 11.04 114.877 11.544C115.165 12.048 115.309 12.624 115.309 13.272C115.309 13.928 115.161 14.512 114.865 15.024C114.569 15.528 114.173 15.924 113.677 16.212C113.189 16.5 112.645 16.644 112.045 16.644ZM112.045 15.744C112.477 15.744 112.865 15.636 113.209 15.42C113.561 15.204 113.837 14.908 114.037 14.532C114.245 14.156 114.349 13.736 114.349 13.272C114.349 12.808 114.245 12.392 114.037 12.024C113.837 11.656 113.561 11.364 113.209 11.148C112.865 10.932 112.477 10.824 112.045 10.824C111.613 10.824 111.221 10.932 110.869 11.148C110.525 11.364 110.249 11.656 110.041 12.024C109.833 12.392 109.729 12.808 109.729 13.272C109.729 13.736 109.833 14.156 110.041 14.532C110.249 14.908 110.525 15.204 110.869 15.42C111.221 15.636 111.613 15.744 112.045 15.744ZM116.897 16.5V10.068H117.797V11.316L117.593 11.268C117.753 10.852 118.013 10.524 118.373 10.284C118.741 10.044 119.165 9.924 119.645 9.924C120.101 9.924 120.509 10.028 120.869 10.236C121.237 10.444 121.525 10.732 121.733 11.1C121.949 11.46 122.057 11.868 122.057 12.324V16.5H121.157V12.672C121.157 12.28 121.085 11.948 120.941 11.676C120.805 11.404 120.609 11.196 120.353 11.052C120.105 10.9 119.817 10.824 119.489 10.824C119.161 10.824 118.869 10.9 118.613 11.052C118.357 11.196 118.157 11.408 118.013 11.688C117.869 11.96 117.797 12.288 117.797 12.672V16.5H116.897ZM47.654 31.5L51.322 21.07H53.366L57.034 31.5H55.27L54.472 29.162H50.23L49.418 31.5H47.654ZM50.706 27.692H53.968L52.12 22.232H52.582L50.706 27.692ZM58.1174 34.3V23.926H59.6294V25.494L59.4474 25.13C59.7274 24.7007 60.1007 24.3647 60.5674 24.122C61.034 23.8793 61.566 23.758 62.1634 23.758C62.882 23.758 63.526 23.9307 64.0954 24.276C64.674 24.6213 65.1267 25.0927 65.4534 25.69C65.7894 26.2873 65.9574 26.9593 65.9574 27.706C65.9574 28.4527 65.7894 29.1247 65.4534 29.722C65.1267 30.3193 64.6787 30.7953 64.1094 31.15C63.54 31.4953 62.8914 31.668 62.1634 31.668C61.5754 31.668 61.0387 31.5467 60.5534 31.304C60.0774 31.0613 59.7087 30.7113 59.4474 30.254L59.6994 29.96V34.3H58.1174ZM62.0094 30.198C62.4574 30.198 62.854 30.0907 63.1994 29.876C63.5447 29.6613 63.8154 29.3673 64.0114 28.994C64.2167 28.6113 64.3194 28.182 64.3194 27.706C64.3194 27.23 64.2167 26.8053 64.0114 26.432C63.8154 26.0587 63.5447 25.7647 63.1994 25.55C62.854 25.3353 62.4574 25.228 62.0094 25.228C61.5707 25.228 61.174 25.3353 60.8194 25.55C60.474 25.7647 60.1987 26.0587 59.9934 26.432C59.7974 26.8053 59.6994 27.23 59.6994 27.706C59.6994 28.182 59.7974 28.6113 59.9934 28.994C60.1987 29.3673 60.474 29.6613 60.8194 29.876C61.174 30.0907 61.5707 30.198 62.0094 30.198ZM67.4963 34.3V23.926H69.0083V25.494L68.8263 25.13C69.1063 24.7007 69.4796 24.3647 69.9463 24.122C70.4129 23.8793 70.9449 23.758 71.5423 23.758C72.2609 23.758 72.9049 23.9307 73.4743 24.276C74.0529 24.6213 74.5056 25.0927 74.8323 25.69C75.1683 26.2873 75.3363 26.9593 75.3363 27.706C75.3363 28.4527 75.1683 29.1247 74.8323 29.722C74.5056 30.3193 74.0576 30.7953 73.4883 31.15C72.9189 31.4953 72.2703 31.668 71.5423 31.668C70.9543 31.668 70.4176 31.5467 69.9323 31.304C69.4563 31.0613 69.0876 30.7113 68.8263 30.254L69.0783 29.96V34.3H67.4963ZM71.3883 30.198C71.8363 30.198 72.2329 30.0907 72.5783 29.876C72.9236 29.6613 73.1943 29.3673 73.3903 28.994C73.5956 28.6113 73.6983 28.182 73.6983 27.706C73.6983 27.23 73.5956 26.8053 73.3903 26.432C73.1943 26.0587 72.9236 25.7647 72.5783 25.55C72.2329 25.3353 71.8363 25.228 71.3883 25.228C70.9496 25.228 70.5529 25.3353 70.1983 25.55C69.8529 25.7647 69.5776 26.0587 69.3723 26.432C69.1763 26.8053 69.0783 27.23 69.0783 27.706C69.0783 28.182 69.1763 28.6113 69.3723 28.994C69.5776 29.3673 69.8529 29.6613 70.1983 29.876C70.5529 30.0907 70.9496 30.198 71.3883 30.198ZM83.1304 31.668C82.4771 31.668 81.8704 31.5467 81.3104 31.304C80.7504 31.052 80.2744 30.7113 79.8824 30.282C79.4904 29.8527 79.2011 29.358 79.0144 28.798L80.4144 28.21C80.6664 28.854 81.0351 29.3487 81.5204 29.694C82.0058 30.0393 82.5658 30.212 83.2004 30.212C83.5738 30.212 83.9004 30.156 84.1804 30.044C84.4604 29.9227 84.6751 29.7547 84.8244 29.54C84.9831 29.3253 85.0624 29.078 85.0624 28.798C85.0624 28.4153 84.9551 28.112 84.7404 27.888C84.5258 27.664 84.2084 27.4867 83.7884 27.356L81.8284 26.74C81.0444 26.4973 80.4471 26.1287 80.0364 25.634C79.6258 25.13 79.4204 24.542 79.4204 23.87C79.4204 23.282 79.5651 22.7687 79.8544 22.33C80.1438 21.882 80.5404 21.532 81.0444 21.28C81.5578 21.028 82.1411 20.902 82.7944 20.902C83.4198 20.902 83.9891 21.014 84.5024 21.238C85.0158 21.4527 85.4544 21.7513 85.8184 22.134C86.1918 22.5167 86.4624 22.96 86.6304 23.464L85.2584 24.066C85.0531 23.5153 84.7311 23.0907 84.2924 22.792C83.8631 22.4933 83.3638 22.344 82.7944 22.344C82.4491 22.344 82.1458 22.4047 81.8844 22.526C81.6231 22.638 81.4178 22.806 81.2684 23.03C81.1284 23.2447 81.0584 23.4967 81.0584 23.786C81.0584 24.122 81.1658 24.4207 81.3804 24.682C81.5951 24.9433 81.9218 25.1393 82.3604 25.27L84.1804 25.844C85.0111 26.096 85.6364 26.46 86.0564 26.936C86.4764 27.4027 86.6864 27.986 86.6864 28.686C86.6864 29.2647 86.5324 29.778 86.2244 30.226C85.9258 30.674 85.5104 31.0287 84.9784 31.29C84.4464 31.542 83.8304 31.668 83.1304 31.668ZM91.6629 31.584C90.8696 31.584 90.2536 31.36 89.8149 30.912C89.3762 30.464 89.1569 29.834 89.1569 29.022V25.354H87.8269V23.926H88.0369C88.3916 23.926 88.6669 23.8233 88.8629 23.618C89.0589 23.4127 89.1569 23.1327 89.1569 22.778V22.19H90.7389V23.926H92.4609V25.354H90.7389V28.952C90.7389 29.2133 90.7809 29.4373 90.8649 29.624C90.9489 29.8013 91.0842 29.9413 91.2709 30.044C91.4576 30.1373 91.7002 30.184 91.9989 30.184C92.0736 30.184 92.1576 30.1793 92.2509 30.17C92.3442 30.1607 92.4329 30.1513 92.5169 30.142V31.5C92.3862 31.5187 92.2416 31.5373 92.0829 31.556C91.9242 31.5747 91.7842 31.584 91.6629 31.584ZM97.578 31.668C96.85 31.668 96.1827 31.4953 95.576 31.15C94.9787 30.8047 94.5027 30.3333 94.148 29.736C93.7933 29.1387 93.616 28.462 93.616 27.706C93.616 26.9407 93.7933 26.264 94.148 25.676C94.5027 25.0787 94.9787 24.612 95.576 24.276C96.1733 23.9307 96.8407 23.758 97.578 23.758C98.3247 23.758 98.992 23.9307 99.58 24.276C100.177 24.612 100.649 25.0787 100.994 25.676C101.349 26.264 101.526 26.9407 101.526 27.706C101.526 28.4713 101.349 29.1527 100.994 29.75C100.639 30.3473 100.163 30.8187 99.566 31.164C98.9687 31.5 98.306 31.668 97.578 31.668ZM97.578 30.198C98.026 30.198 98.4227 30.0907 98.768 29.876C99.1133 29.6613 99.384 29.3673 99.58 28.994C99.7853 28.6113 99.888 28.182 99.888 27.706C99.888 27.23 99.7853 26.8053 99.58 26.432C99.384 26.0587 99.1133 25.7647 98.768 25.55C98.4227 25.3353 98.026 25.228 97.578 25.228C97.1393 25.228 96.7427 25.3353 96.388 25.55C96.0427 25.7647 95.7673 26.0587 95.562 26.432C95.366 26.8053 95.268 27.23 95.268 27.706C95.268 28.182 95.366 28.6113 95.562 28.994C95.7673 29.3673 96.0427 29.6613 96.388 29.876C96.7427 30.0907 97.1393 30.198 97.578 30.198ZM103.07 31.5V23.926H104.582V25.452L104.442 25.228C104.61 24.7333 104.881 24.3787 105.254 24.164C105.628 23.94 106.076 23.828 106.598 23.828H107.06V25.27H106.402C105.88 25.27 105.455 25.4333 105.128 25.76C104.811 26.0773 104.652 26.5347 104.652 27.132V31.5H103.07ZM111.699 31.668C110.943 31.668 110.271 31.4953 109.683 31.15C109.104 30.7953 108.651 30.3193 108.325 29.722C107.998 29.1153 107.835 28.4387 107.835 27.692C107.835 26.9267 107.998 26.25 108.325 25.662C108.661 25.074 109.109 24.612 109.669 24.276C110.229 23.9307 110.863 23.758 111.573 23.758C112.142 23.758 112.651 23.856 113.099 24.052C113.547 24.248 113.925 24.5187 114.233 24.864C114.541 25.2 114.774 25.5873 114.933 26.026C115.101 26.4647 115.185 26.9313 115.185 27.426C115.185 27.5473 115.18 27.6733 115.171 27.804C115.161 27.9347 115.143 28.056 115.115 28.168H109.081V26.908H114.219L113.463 27.482C113.556 27.0247 113.523 26.6187 113.365 26.264C113.215 25.9 112.982 25.6153 112.665 25.41C112.357 25.1953 111.993 25.088 111.573 25.088C111.153 25.088 110.779 25.1953 110.453 25.41C110.126 25.6153 109.874 25.914 109.697 26.306C109.519 26.6887 109.449 27.1553 109.487 27.706C109.44 28.2193 109.51 28.6673 109.697 29.05C109.893 29.4327 110.163 29.7313 110.509 29.946C110.863 30.1607 111.265 30.268 111.713 30.268C112.17 30.268 112.557 30.1653 112.875 29.96C113.201 29.7547 113.458 29.4887 113.645 29.162L114.933 29.792C114.783 30.1467 114.55 30.4687 114.233 30.758C113.925 31.038 113.551 31.262 113.113 31.43C112.683 31.5887 112.212 31.668 111.699 31.668Z" fill="white"/>
<defs>
<clipPath id="clip0_324_1610">
<rect width="32" height="32" fill="white" transform="translate(7.5 4)"/>
</clipPath>
</defs>
</svg>
