<svg width="131" height="40" viewBox="0 0 131 40" fill="none" xmlns="http://www.w3.org/2000/svg">
<rect x="0.5" y="0.5" width="129.96" height="39" rx="7.5" stroke="white"/>
<g clip-path="url(#clip0_324_1603)">
<path d="M21.525 19.2559L8.12646 33.2935C8.27693 33.8267 8.54732 34.3184 8.91696 34.7311C9.2866 35.1439 9.74572 35.4666 10.2592 35.6747C10.7727 35.8827 11.327 35.9707 11.8796 35.9317C12.4323 35.8928 12.9687 35.7279 13.448 35.4499L28.5238 26.8637L21.525 19.2559Z" fill="#EA4335"/>
<path d="M35.0729 16.8699L28.5536 13.1357L21.2153 19.5753L28.5835 26.8437L35.0531 23.1496C35.6263 22.8495 36.1063 22.3982 36.4413 21.8447C36.7762 21.2913 36.9533 20.6566 36.9533 20.0097C36.9533 19.3627 36.7762 18.7281 36.4413 18.1746C36.1063 17.6212 35.6263 17.1699 35.0531 16.8698L35.0729 16.8699Z" fill="#FBB948"/>
<path d="M8.12624 6.65625C8.0453 6.95566 8.00499 7.2646 8.00638 7.57475V32.375C8.00718 32.685 8.04746 32.9937 8.12624 33.2936L21.9841 19.6155L8.12624 6.65625Z" fill="#4285F4"/>
<path d="M21.6248 19.9745L28.5538 13.1354L13.4979 4.50918C12.9315 4.17744 12.2872 4.00176 11.6307 4.00001C10.0017 3.99684 8.56949 5.07806 8.12646 6.64583L21.6248 19.9745Z" fill="#34A853"/>
</g>
<path d="M46.096 16.644C45.464 16.644 44.884 16.532 44.356 16.308C43.828 16.076 43.368 15.756 42.976 15.348C42.592 14.932 42.292 14.444 42.076 13.884C41.86 13.324 41.752 12.708 41.752 12.036C41.752 11.364 41.86 10.748 42.076 10.188C42.292 9.628 42.592 9.14 42.976 8.724C43.368 8.308 43.828 7.988 44.356 7.764C44.884 7.532 45.464 7.416 46.096 7.416C46.704 7.416 47.248 7.524 47.728 7.74C48.216 7.956 48.624 8.236 48.952 8.58C49.288 8.916 49.528 9.272 49.672 9.648L48.808 10.068C48.584 9.524 48.24 9.096 47.776 8.784C47.312 8.472 46.752 8.316 46.096 8.316C45.44 8.316 44.856 8.472 44.344 8.784C43.832 9.096 43.432 9.532 43.144 10.092C42.856 10.644 42.712 11.292 42.712 12.036C42.712 12.772 42.856 13.42 43.144 13.98C43.432 14.54 43.832 14.976 44.344 15.288C44.856 15.592 45.44 15.744 46.096 15.744C46.68 15.744 47.204 15.616 47.668 15.36C48.14 15.104 48.512 14.756 48.784 14.316C49.056 13.868 49.192 13.356 49.192 12.78V12.288L49.624 12.72H46.096V11.88H50.152V12.624C50.152 13.208 50.048 13.748 49.84 14.244C49.632 14.732 49.344 15.156 48.976 15.516C48.608 15.876 48.176 16.156 47.68 16.356C47.192 16.548 46.664 16.644 46.096 16.644ZM51.8714 16.5V7.56H57.6314V8.46H52.8314V11.568H57.3914V12.468H52.8314V15.6H57.6314V16.5H51.8714ZM60.7671 16.5V8.46H58.2951V7.56H64.1751V8.46H61.7271V16.5H60.7671ZM67.3988 16.5V7.56H68.3588V16.5H67.3988ZM72.0171 16.5V8.46H69.5451V7.56H75.4251V8.46H72.9771V16.5H72.0171ZM82.8608 16.644C82.2368 16.644 81.6528 16.532 81.1088 16.308C80.5728 16.076 80.1008 15.756 79.6928 15.348C79.2848 14.932 78.9648 14.444 78.7328 13.884C78.5008 13.316 78.3848 12.696 78.3848 12.024C78.3848 11.352 78.5008 10.736 78.7328 10.176C78.9648 9.608 79.2848 9.12 79.6928 8.712C80.1008 8.296 80.5728 7.976 81.1088 7.752C81.6528 7.528 82.2368 7.416 82.8608 7.416C83.4848 7.416 84.0648 7.532 84.6008 7.764C85.1448 7.988 85.6208 8.308 86.0288 8.724C86.4368 9.132 86.7568 9.616 86.9888 10.176C87.2208 10.736 87.3368 11.352 87.3368 12.024C87.3368 12.696 87.2208 13.316 86.9888 13.884C86.7568 14.444 86.4368 14.932 86.0288 15.348C85.6208 15.756 85.1448 16.076 84.6008 16.308C84.0648 16.532 83.4848 16.644 82.8608 16.644ZM82.8608 15.744C83.3808 15.744 83.8528 15.648 84.2768 15.456C84.7088 15.264 85.0808 14.996 85.3928 14.652C85.7048 14.308 85.9448 13.912 86.1128 13.464C86.2888 13.016 86.3768 12.536 86.3768 12.024C86.3768 11.52 86.2888 11.044 86.1128 10.596C85.9448 10.148 85.7048 9.752 85.3928 9.408C85.0808 9.064 84.7088 8.796 84.2768 8.604C83.8528 8.412 83.3808 8.316 82.8608 8.316C82.3408 8.316 81.8648 8.412 81.4328 8.604C81.0088 8.796 80.6408 9.064 80.3288 9.408C80.0168 9.752 79.7728 10.148 79.5968 10.596C79.4288 11.044 79.3448 11.52 79.3448 12.024C79.3448 12.536 79.4288 13.016 79.5968 13.464C79.7728 13.912 80.0168 14.308 80.3288 14.652C80.6408 14.996 81.0128 15.264 81.4448 15.456C81.8768 15.648 82.3488 15.744 82.8608 15.744ZM89.1839 16.5V7.56H90.0239L95.2679 15.084H94.9439V7.56H95.9039V16.5H95.0639L89.8199 8.928H90.1439V16.5H89.1839ZM46.924 31.668C46.1866 31.668 45.5006 31.5327 44.866 31.262C44.2406 30.9913 43.69 30.618 43.214 30.142C42.7473 29.6567 42.3833 29.0873 42.122 28.434C41.8606 27.7807 41.73 27.062 41.73 26.278C41.73 25.5033 41.856 24.7893 42.108 24.136C42.3693 23.4733 42.7333 22.904 43.2 22.428C43.6666 21.9427 44.2126 21.5693 44.838 21.308C45.4633 21.0373 46.1493 20.902 46.896 20.902C47.6333 20.902 48.2913 21.028 48.87 21.28C49.458 21.532 49.9526 21.8633 50.354 22.274C50.7553 22.6753 51.0446 23.114 51.222 23.59L49.752 24.304C49.5373 23.7347 49.1826 23.2773 48.688 22.932C48.1933 22.5773 47.596 22.4 46.896 22.4C46.2053 22.4 45.594 22.5633 45.062 22.89C44.53 23.2167 44.1146 23.6693 43.816 24.248C43.5266 24.8267 43.382 25.5033 43.382 26.278C43.382 27.0527 43.5313 27.734 43.83 28.322C44.138 28.9007 44.558 29.3533 45.09 29.68C45.622 29.9973 46.2333 30.156 46.924 30.156C47.5026 30.156 48.03 30.0393 48.506 29.806C48.9913 29.5633 49.3786 29.2273 49.668 28.798C49.9573 28.3593 50.102 27.8507 50.102 27.272V26.558L50.844 27.23H46.896V25.83H51.74V26.81C51.74 27.5753 51.6093 28.2613 51.348 28.868C51.0866 29.4653 50.732 29.974 50.284 30.394C49.836 30.814 49.3226 31.1313 48.744 31.346C48.1653 31.5607 47.5586 31.668 46.924 31.668ZM56.9266 31.668C56.1986 31.668 55.5313 31.4953 54.9246 31.15C54.3273 30.8047 53.8513 30.3333 53.4966 29.736C53.142 29.1387 52.9646 28.462 52.9646 27.706C52.9646 26.9407 53.142 26.264 53.4966 25.676C53.8513 25.0787 54.3273 24.612 54.9246 24.276C55.522 23.9307 56.1893 23.758 56.9266 23.758C57.6733 23.758 58.3406 23.9307 58.9286 24.276C59.526 24.612 59.9973 25.0787 60.3426 25.676C60.6973 26.264 60.8746 26.9407 60.8746 27.706C60.8746 28.4713 60.6973 29.1527 60.3426 29.75C59.988 30.3473 59.512 30.8187 58.9146 31.164C58.3173 31.5 57.6546 31.668 56.9266 31.668ZM56.9266 30.198C57.3746 30.198 57.7713 30.0907 58.1166 29.876C58.462 29.6613 58.7326 29.3673 58.9286 28.994C59.134 28.6113 59.2366 28.182 59.2366 27.706C59.2366 27.23 59.134 26.8053 58.9286 26.432C58.7326 26.0587 58.462 25.7647 58.1166 25.55C57.7713 25.3353 57.3746 25.228 56.9266 25.228C56.488 25.228 56.0913 25.3353 55.7366 25.55C55.3913 25.7647 55.116 26.0587 54.9106 26.432C54.7146 26.8053 54.6166 27.23 54.6166 27.706C54.6166 28.182 54.7146 28.6113 54.9106 28.994C55.116 29.3673 55.3913 29.6613 55.7366 29.876C56.0913 30.0907 56.488 30.198 56.9266 30.198ZM66.0731 31.668C65.3451 31.668 64.6778 31.4953 64.0711 31.15C63.4738 30.8047 62.9978 30.3333 62.6431 29.736C62.2885 29.1387 62.1111 28.462 62.1111 27.706C62.1111 26.9407 62.2885 26.264 62.6431 25.676C62.9978 25.0787 63.4738 24.612 64.0711 24.276C64.6685 23.9307 65.3358 23.758 66.0731 23.758C66.8198 23.758 67.4871 23.9307 68.0751 24.276C68.6725 24.612 69.1438 25.0787 69.4891 25.676C69.8438 26.264 70.0211 26.9407 70.0211 27.706C70.0211 28.4713 69.8438 29.1527 69.4891 29.75C69.1345 30.3473 68.6585 30.8187 68.0611 31.164C67.4638 31.5 66.8011 31.668 66.0731 31.668ZM66.0731 30.198C66.5211 30.198 66.9178 30.0907 67.2631 29.876C67.6085 29.6613 67.8791 29.3673 68.0751 28.994C68.2805 28.6113 68.3831 28.182 68.3831 27.706C68.3831 27.23 68.2805 26.8053 68.0751 26.432C67.8791 26.0587 67.6085 25.7647 67.2631 25.55C66.9178 25.3353 66.5211 25.228 66.0731 25.228C65.6345 25.228 65.2378 25.3353 64.8831 25.55C64.5378 25.7647 64.2625 26.0587 64.0571 26.432C63.8611 26.8053 63.7631 27.23 63.7631 27.706C63.7631 28.182 63.8611 28.6113 64.0571 28.994C64.2625 29.3673 64.5378 29.6613 64.8831 29.876C65.2378 30.0907 65.6345 30.198 66.0731 30.198ZM75.2196 34.58C74.6689 34.58 74.1603 34.4913 73.6936 34.314C73.2269 34.1367 72.8256 33.8893 72.4896 33.572C72.1536 33.264 71.9016 32.9 71.7336 32.48L73.1896 31.878C73.3203 32.2327 73.5583 32.5267 73.9036 32.76C74.2583 32.9933 74.6923 33.11 75.2056 33.11C75.6069 33.11 75.9663 33.0307 76.2836 32.872C76.6009 32.7227 76.8529 32.4987 77.0396 32.2C77.2263 31.9107 77.3196 31.5607 77.3196 31.15V29.442L77.5996 29.764C77.3383 30.2493 76.9743 30.618 76.5076 30.87C76.0503 31.122 75.5323 31.248 74.9536 31.248C74.2536 31.248 73.6236 31.0847 73.0636 30.758C72.5036 30.4313 72.0603 29.9833 71.7336 29.414C71.4163 28.8447 71.2576 28.2053 71.2576 27.496C71.2576 26.7773 71.4163 26.138 71.7336 25.578C72.0603 25.018 72.4989 24.5747 73.0496 24.248C73.6003 23.9213 74.2303 23.758 74.9396 23.758C75.5183 23.758 76.0316 23.884 76.4796 24.136C76.9369 24.3787 77.3103 24.7333 77.5996 25.2L77.3896 25.592V23.926H78.8876V31.15C78.8876 31.8033 78.7289 32.3867 78.4116 32.9C78.1036 33.4227 77.6743 33.8333 77.1236 34.132C76.5729 34.4307 75.9383 34.58 75.2196 34.58ZM75.1356 29.778C75.5556 29.778 75.9289 29.68 76.2556 29.484C76.5823 29.2787 76.8389 29.008 77.0256 28.672C77.2216 28.3267 77.3196 27.9393 77.3196 27.51C77.3196 27.0807 77.2216 26.6933 77.0256 26.348C76.8296 26.0027 76.5683 25.732 76.2416 25.536C75.9149 25.3307 75.5463 25.228 75.1356 25.228C74.7063 25.228 74.3236 25.3307 73.9876 25.536C73.6516 25.732 73.3856 26.0027 73.1896 26.348C73.0029 26.684 72.9096 27.0713 72.9096 27.51C72.9096 27.93 73.0029 28.3127 73.1896 28.658C73.3856 29.0033 73.6516 29.2787 73.9876 29.484C74.3236 29.68 74.7063 29.778 75.1356 29.778ZM80.7394 31.5V20.902H82.3214V31.5H80.7394ZM87.7271 31.668C86.9711 31.668 86.2991 31.4953 85.7111 31.15C85.1324 30.7953 84.6797 30.3193 84.3531 29.722C84.0264 29.1153 83.8631 28.4387 83.8631 27.692C83.8631 26.9267 84.0264 26.25 84.3531 25.662C84.6891 25.074 85.1371 24.612 85.6971 24.276C86.2571 23.9307 86.8917 23.758 87.6011 23.758C88.1704 23.758 88.6791 23.856 89.1271 24.052C89.5751 24.248 89.9531 24.5187 90.2611 24.864C90.5691 25.2 90.8024 25.5873 90.9611 26.026C91.1291 26.4647 91.2131 26.9313 91.2131 27.426C91.2131 27.5473 91.2084 27.6733 91.1991 27.804C91.1897 27.9347 91.1711 28.056 91.1431 28.168H85.1091V26.908H90.2471L89.4911 27.482C89.5844 27.0247 89.5517 26.6187 89.3931 26.264C89.2437 25.9 89.0104 25.6153 88.6931 25.41C88.3851 25.1953 88.0211 25.088 87.6011 25.088C87.1811 25.088 86.8077 25.1953 86.4811 25.41C86.1544 25.6153 85.9024 25.914 85.7251 26.306C85.5477 26.6887 85.4777 27.1553 85.5151 27.706C85.4684 28.2193 85.5384 28.6673 85.7251 29.05C85.9211 29.4327 86.1917 29.7313 86.5371 29.946C86.8917 30.1607 87.2931 30.268 87.7411 30.268C88.1984 30.268 88.5857 30.1653 88.9031 29.96C89.2297 29.7547 89.4864 29.4887 89.6731 29.162L90.9611 29.792C90.8117 30.1467 90.5784 30.4687 90.2611 30.758C89.9531 31.038 89.5797 31.262 89.1411 31.43C88.7117 31.5887 88.2404 31.668 87.7271 31.668ZM95.2899 31.5V21.07H99.0839C99.7839 21.07 100.4 21.2007 100.932 21.462C101.473 21.714 101.893 22.0873 102.192 22.582C102.491 23.0673 102.64 23.6507 102.64 24.332C102.64 25.004 102.486 25.5827 102.178 26.068C101.879 26.5533 101.464 26.9267 100.932 27.188C100.4 27.4493 99.7839 27.58 99.0839 27.58H96.9419V31.5H95.2899ZM96.9419 26.11H99.1259C99.4992 26.11 99.8259 26.0353 100.106 25.886C100.386 25.7367 100.605 25.5313 100.764 25.27C100.923 24.9993 101.002 24.682 101.002 24.318C101.002 23.954 100.923 23.6413 100.764 23.38C100.605 23.1093 100.386 22.904 100.106 22.764C99.8259 22.6147 99.4992 22.54 99.1259 22.54H96.9419V26.11ZM104.187 31.5V20.902H105.769V31.5H104.187ZM109.886 31.668C109.373 31.668 108.92 31.5793 108.528 31.402C108.146 31.2153 107.847 30.9633 107.632 30.646C107.418 30.3193 107.31 29.9367 107.31 29.498C107.31 29.0873 107.399 28.7187 107.576 28.392C107.763 28.0653 108.048 27.79 108.43 27.566C108.813 27.342 109.294 27.1833 109.872 27.09L112.504 26.656V27.902L110.18 28.308C109.76 28.3827 109.452 28.518 109.256 28.714C109.06 28.9007 108.962 29.1433 108.962 29.442C108.962 29.7313 109.07 29.9693 109.284 30.156C109.508 30.3333 109.793 30.422 110.138 30.422C110.568 30.422 110.941 30.3287 111.258 30.142C111.585 29.9553 111.837 29.708 112.014 29.4C112.192 29.0827 112.28 28.7327 112.28 28.35V26.404C112.28 26.0307 112.14 25.7273 111.86 25.494C111.59 25.2513 111.226 25.13 110.768 25.13C110.348 25.13 109.98 25.242 109.662 25.466C109.354 25.6807 109.126 25.9607 108.976 26.306L107.66 25.648C107.8 25.2747 108.029 24.948 108.346 24.668C108.664 24.3787 109.032 24.1547 109.452 23.996C109.882 23.8373 110.334 23.758 110.81 23.758C111.408 23.758 111.935 23.87 112.392 24.094C112.859 24.318 113.218 24.6307 113.47 25.032C113.732 25.424 113.862 25.8813 113.862 26.404V31.5H112.35V30.128L112.672 30.17C112.495 30.478 112.266 30.744 111.986 30.968C111.716 31.192 111.403 31.3647 111.048 31.486C110.703 31.6073 110.316 31.668 109.886 31.668ZM116.384 34.594C116.197 34.594 116.011 34.5753 115.824 34.538C115.647 34.51 115.483 34.4633 115.334 34.398V33.04C115.446 33.068 115.581 33.0913 115.74 33.11C115.899 33.138 116.053 33.152 116.202 33.152C116.641 33.152 116.963 33.054 117.168 32.858C117.383 32.6713 117.574 32.3773 117.742 31.976L118.246 30.828L118.218 32.158L114.942 23.926H116.636L119.058 30.24H118.484L120.892 23.926H122.6L119.254 32.326C119.077 32.774 118.853 33.166 118.582 33.502C118.321 33.8473 118.008 34.1133 117.644 34.3C117.289 34.496 116.869 34.594 116.384 34.594Z" fill="white"/>
<defs>
<clipPath id="clip0_324_1603">
<rect width="28.96" height="32" fill="white" transform="translate(8 4)"/>
</clipPath>
</defs>
</svg>
